<?xml version="1.0" encoding="UTF-8" standalone="no"?>
<svg
   xmlns:dc="http://purl.org/dc/elements/1.1/"
   xmlns:cc="http://creativecommons.org/ns#"
   xmlns:rdf="http://www.w3.org/1999/02/22-rdf-syntax-ns#"
   xmlns:svg="http://www.w3.org/2000/svg"
   xmlns="http://www.w3.org/2000/svg"
   xmlns:xlink="http://www.w3.org/1999/xlink"
   id="SVGRoot"
   version="1.1"
   viewBox="0 0 8.3333333 8.3333331"
   height="800"
   width="800">
  <defs
     id="defs834">
    <marker
       orient="auto"
       refY="0"
       refX="0"
       id="marker7220"
       style="overflow:visible">
      <g
         transform="translate(-13,0)"
         style="fill:#ffffff;stroke:#ffffff;stroke-opacity:1;fill-opacity:1"
         id="g7218">
        <circle
           style="stroke:#ffffff;stroke-opacity:1;fill:#ffffff;fill-opacity:1"
           cx="3"
           cy="0"
           r="0.8"
           id="circle7212" />
        <circle
           style="stroke:#ffffff;stroke-opacity:1;fill:#ffffff;fill-opacity:1"
           cx="6.5"
           cy="0"
           r="0.8"
           id="circle7214" />
        <circle
           style="stroke:#ffffff;stroke-opacity:1;fill:#ffffff;fill-opacity:1"
           cx="10"
           cy="0"
           r="0.8"
           id="circle7216" />
      </g>
    </marker>
    <marker
       orient="auto"
       refY="0"
       refX="0"
       id="marker7210"
       style="overflow:visible">
      <g
         transform="translate(-13,0)"
         style="fill:#ffffff;stroke:#ffffff;stroke-opacity:1;fill-opacity:1"
         id="g7208">
        <circle
           style="stroke:#ffffff;stroke-opacity:1;fill:#ffffff;fill-opacity:1"
           cx="3"
           cy="0"
           r="0.8"
           id="circle7202" />
        <circle
           style="stroke:#ffffff;stroke-opacity:1;fill:#ffffff;fill-opacity:1"
           cx="6.5"
           cy="0"
           r="0.8"
           id="circle7204" />
        <circle
           style="stroke:#ffffff;stroke-opacity:1;fill:#ffffff;fill-opacity:1"
           cx="10"
           cy="0"
           r="0.8"
           id="circle7206" />
      </g>
    </marker>
    <marker
       orient="auto"
       refY="0"
       refX="0"
       id="InfiniteLineStart"
       style="overflow:visible">
      <g
         transform="translate(-13,0)"
         style="fill:#ffffff;stroke:#ffffff;stroke-opacity:1;fill-opacity:1"
         id="g7185">
        <circle
           style="stroke:#ffffff;stroke-opacity:1;fill:#ffffff;fill-opacity:1"
           cx="3"
           cy="0"
           r="0.8"
           id="circle7179" />
        <circle
           style="stroke:#ffffff;stroke-opacity:1;fill:#ffffff;fill-opacity:1"
           cx="6.5"
           cy="0"
           r="0.8"
           id="circle7181" />
        <circle
           style="stroke:#ffffff;stroke-opacity:1;fill:#ffffff;fill-opacity:1"
           cx="10"
           cy="0"
           r="0.8"
           id="circle7183" />
      </g>
    </marker>
    <linearGradient
       id="linearGradient2603">
      <stop
         id="stop2599"
         offset="0"
         style="stop-color:#c0e8e8;stop-opacity:1;" />
      <stop
         id="stop2601"
         offset="1"
         style="stop-color:#c0e8e8;stop-opacity:0;" />
    </linearGradient>
    <linearGradient
       id="linearGradient11518">
      <stop
         id="stop11514"
         offset="0"
         style="stop-color:#a3deec;stop-opacity:1;" />
      <stop
         id="stop11516"
         offset="1"
         style="stop-color:#a3deec;stop-opacity:0;" />
    </linearGradient>
    <linearGradient
       gradientTransform="matrix(0.01041667,0,0,0.01041667,3.0970244,3.1021801)"
       y2="1.0086861"
       x2="2.3413999"
       y1="1.0086861"
       x1="2.2395854"
       gradientUnits="userSpaceOnUse"
       id="linearGradient3116"
       xlink:href="#linearGradient11518" />
    <linearGradient
       gradientTransform="matrix(0.01041667,0,0,0.01041667,3.0970244,3.1021801)"
       y2="0.86823446"
       x2="2.2109804"
       y1="0.86823446"
       x1="2.1091659"
       gradientUnits="userSpaceOnUse"
       id="linearGradient3128"
       xlink:href="#linearGradient2603" />
    <linearGradient
       gradientTransform="matrix(0.01041667,0,0,0.01041667,3.0970244,3.1021801)"
       y2="0.98360544"
       x2="2.0630043"
       y1="0.98360544"
       x1="1.9611896"
       gradientUnits="userSpaceOnUse"
       id="linearGradient3143"
       xlink:href="#linearGradient11518" />
    <clipPath
       clipPathUnits="userSpaceOnUse"
       id="clipPath10459">
      <path
         d="M 0,800 H 1000 V 0 H 0 Z"
         id="path10457" />
    </clipPath>
    <clipPath
       clipPathUnits="userSpaceOnUse"
       id="clipPath10583">
      <path
         d="M 0,800 H 1000 V 0 H 0 Z"
         id="path10581" />
    </clipPath>
    <clipPath
       clipPathUnits="userSpaceOnUse"
       id="clipPath10707">
      <path
         d="M 0,800 H 1000 V 0 H 0 Z"
         id="path10705" />
    </clipPath>
    <clipPath
       clipPathUnits="userSpaceOnUse"
       id="clipPath10727">
      <path
         d="M 0,800 H 1000 V 0 H 0 Z"
         id="path10725" />
    </clipPath>
    <clipPath
       clipPathUnits="userSpaceOnUse"
       id="clipPath10747">
      <path
         d="M 0,800 H 1000 V 0 H 0 Z"
         id="path10745" />
    </clipPath>
    <clipPath
       clipPathUnits="userSpaceOnUse"
       id="clipPath10767">
      <path
         d="M 0,800 H 1000 V 0 H 0 Z"
         id="path10765" />
    </clipPath>
    <clipPath
       clipPathUnits="userSpaceOnUse"
       id="clipPath10877">
      <path
         d="M 0,800 H 1000 V 0 H 0 Z"
         id="path10875" />
    </clipPath>
    <clipPath
       clipPathUnits="userSpaceOnUse"
       id="clipPath11077">
      <path
         d="M 0,800 H 1000 V 0 H 0 Z"
         id="path11075" />
    </clipPath>
    <clipPath
       clipPathUnits="userSpaceOnUse"
       id="clipPath11121">
      <path
         d="M 0,800 H 1000 V 0 H 0 Z"
         id="path11119" />
    </clipPath>
    <clipPath
       clipPathUnits="userSpaceOnUse"
       id="clipPath11153">
      <path
         d="M 0,800 H 1000 V 0 H 0 Z"
         id="path11151" />
    </clipPath>
    <clipPath
       clipPathUnits="userSpaceOnUse"
       id="clipPath11409">
      <path
         d="M 0,800 H 1000 V 0 H 0 Z"
         id="path11407" />
    </clipPath>
    <clipPath
       clipPathUnits="userSpaceOnUse"
       id="clipPath11537">
      <path
         d="M 0,800 H 1000 V 0 H 0 Z"
         id="path11535" />
    </clipPath>
    <clipPath
       clipPathUnits="userSpaceOnUse"
       id="clipPath11645">
      <path
         d="M 0,800 H 1000 V 0 H 0 Z"
         id="path11643" />
    </clipPath>
    <clipPath
       clipPathUnits="userSpaceOnUse"
       id="clipPath11929">
      <path
         d="M 0,800 H 1000 V 0 H 0 Z"
         id="path11927" />
    </clipPath>
    <clipPath
       clipPathUnits="userSpaceOnUse"
       id="clipPath11965">
      <path
         d="M 0,800 H 1000 V 0 H 0 Z"
         id="path11963" />
    </clipPath>
    <clipPath
       clipPathUnits="userSpaceOnUse"
       id="clipPath12039">
      <path
         d="M 0,800 H 1000 V 0 H 0 Z"
         id="path12037" />
    </clipPath>
    <clipPath
       clipPathUnits="userSpaceOnUse"
       id="clipPath12175">
      <path
         d="M 0,800 H 1000 V 0 H 0 Z"
         id="path12173" />
    </clipPath>
    <clipPath
       clipPathUnits="userSpaceOnUse"
       id="clipPath12271">
      <path
         d="M 0,800 H 1000 V 0 H 0 Z"
         id="path12269" />
    </clipPath>
    <clipPath
       clipPathUnits="userSpaceOnUse"
       id="clipPath12299">
      <path
         d="M 0,800 H 1000 V 0 H 0 Z"
         id="path12297" />
    </clipPath>
    <clipPath
       clipPathUnits="userSpaceOnUse"
       id="clipPath12321">
      <path
         d="M 0,800 H 1000 V 0 H 0 Z"
         id="path12319" />
    </clipPath>
    <clipPath
       clipPathUnits="userSpaceOnUse"
       id="clipPath12427">
      <path
         d="M 0,800 H 1000 V 0 H 0 Z"
         id="path12425" />
    </clipPath>
    <clipPath
       clipPathUnits="userSpaceOnUse"
       id="clipPath18">
      <path
         d="M 0,1833.295 H 3000 V 0 H 0 Z"
         id="path16" />
    </clipPath>
    <clipPath
       clipPathUnits="userSpaceOnUse"
       id="clipPath12427-0">
      <path
         d="M 0,800 H 1000 V 0 H 0 Z"
         id="path12425-4" />
    </clipPath>
    <clipPath
       clipPathUnits="userSpaceOnUse"
       id="clipPath12321-4">
      <path
         d="M 0,800 H 1000 V 0 H 0 Z"
         id="path12319-8" />
    </clipPath>
    <clipPath
       clipPathUnits="userSpaceOnUse"
       id="clipPath12299-5">
      <path
         d="M 0,800 H 1000 V 0 H 0 Z"
         id="path12297-4" />
    </clipPath>
    <clipPath
       clipPathUnits="userSpaceOnUse"
       id="clipPath12271-5">
      <path
         d="M 0,800 H 1000 V 0 H 0 Z"
         id="path12269-7" />
    </clipPath>
    <clipPath
       clipPathUnits="userSpaceOnUse"
       id="clipPath12175-5">
      <path
         d="M 0,800 H 1000 V 0 H 0 Z"
         id="path12173-2" />
    </clipPath>
    <clipPath
       clipPathUnits="userSpaceOnUse"
       id="clipPath12039-7">
      <path
         d="M 0,800 H 1000 V 0 H 0 Z"
         id="path12037-4" />
    </clipPath>
    <clipPath
       clipPathUnits="userSpaceOnUse"
       id="clipPath11965-2">
      <path
         d="M 0,800 H 1000 V 0 H 0 Z"
         id="path11963-6" />
    </clipPath>
    <clipPath
       clipPathUnits="userSpaceOnUse"
       id="clipPath11929-0">
      <path
         d="M 0,800 H 1000 V 0 H 0 Z"
         id="path11927-9" />
    </clipPath>
    <clipPath
       clipPathUnits="userSpaceOnUse"
       id="clipPath11645-2">
      <path
         d="M 0,800 H 1000 V 0 H 0 Z"
         id="path11643-7" />
    </clipPath>
    <clipPath
       clipPathUnits="userSpaceOnUse"
       id="clipPath11537-4">
      <path
         d="M 0,800 H 1000 V 0 H 0 Z"
         id="path11535-0" />
    </clipPath>
    <clipPath
       clipPathUnits="userSpaceOnUse"
       id="clipPath11409-3">
      <path
         d="M 0,800 H 1000 V 0 H 0 Z"
         id="path11407-8" />
    </clipPath>
    <clipPath
       clipPathUnits="userSpaceOnUse"
       id="clipPath11153-4">
      <path
         d="M 0,800 H 1000 V 0 H 0 Z"
         id="path11151-4" />
    </clipPath>
    <clipPath
       clipPathUnits="userSpaceOnUse"
       id="clipPath11121-7">
      <path
         d="M 0,800 H 1000 V 0 H 0 Z"
         id="path11119-5" />
    </clipPath>
    <clipPath
       clipPathUnits="userSpaceOnUse"
       id="clipPath11077-3">
      <path
         d="M 0,800 H 1000 V 0 H 0 Z"
         id="path11075-8" />
    </clipPath>
    <clipPath
       clipPathUnits="userSpaceOnUse"
       id="clipPath10877-7">
      <path
         d="M 0,800 H 1000 V 0 H 0 Z"
         id="path10875-2" />
    </clipPath>
    <clipPath
       clipPathUnits="userSpaceOnUse"
       id="clipPath10767-2">
      <path
         d="M 0,800 H 1000 V 0 H 0 Z"
         id="path10765-7" />
    </clipPath>
    <clipPath
       clipPathUnits="userSpaceOnUse"
       id="clipPath10747-9">
      <path
         d="M 0,800 H 1000 V 0 H 0 Z"
         id="path10745-6" />
    </clipPath>
    <clipPath
       clipPathUnits="userSpaceOnUse"
       id="clipPath10727-6">
      <path
         d="M 0,800 H 1000 V 0 H 0 Z"
         id="path10725-4" />
    </clipPath>
    <clipPath
       clipPathUnits="userSpaceOnUse"
       id="clipPath10707-2">
      <path
         d="M 0,800 H 1000 V 0 H 0 Z"
         id="path10705-1" />
    </clipPath>
    <clipPath
       clipPathUnits="userSpaceOnUse"
       id="clipPath10583-4">
      <path
         d="M 0,800 H 1000 V 0 H 0 Z"
         id="path10581-7" />
    </clipPath>
    <clipPath
       clipPathUnits="userSpaceOnUse"
       id="clipPath10459-6">
      <path
         d="M 0,800 H 1000 V 0 H 0 Z"
         id="path10457-3" />
    </clipPath>
  </defs>
  <metadata
     id="metadata837">
    <rdf:RDF>
      <cc:Work
         rdf:about="">
        <dc:format>image/svg+xml</dc:format>
        <dc:type
           rdf:resource="http://purl.org/dc/dcmitype/StillImage" />
        <dc:title></dc:title>
      </cc:Work>
    </rdf:RDF>
    <rdf:RDF>
      <cc:Work
         rdf:about="">
        <dc:title />
      </cc:Work>
    </rdf:RDF>
  </metadata>
  <g
     style="display:none"
     id="layer1">
    <rect
       ry="0.26651883"
       rx="0.01727438"
       y="-0.10954066"
       x="-0.12563805"
       height="8.6187706"
       width="8.6690254"
       id="rect5170"
       style="opacity:1;fill:#bce7f5;fill-opacity:1;fill-rule:evenodd;stroke:none;stroke-width:0.01574804;stroke-linecap:square;stroke-linejoin:miter;stroke-miterlimit:4;stroke-dasharray:none;stroke-dashoffset:0;stroke-opacity:1;paint-order:normal" />
  </g>
  <g
     id="layer4">
    <path
       id="path5011"
       d="M 5.5080891,5.7282715 C 5.8018118,5.7414875 6.128453,5.7679091 6.1292688,5.4135405 6.1177736,4.8550347 5.7775752,4.5618445 5.5642084,4.188028 5.2495827,3.6978243 5.5282406,3.1046455 6.0255888,2.9761491 6.418348,2.9041266 6.7704461,2.9666691 6.9975107,3.2895884 7.2812162,3.7123904 7.1091223,4.2447839 6.5807097,4.2357834 6.4704173,4.2306607 6.367747,4.1843231 6.311482,4.071793 6.1816572,3.8125014 6.5490436,3.9304517 6.68419,3.7984737 6.7444392,3.6958459 6.6804996,3.5953162 6.5942793,3.5213905 6.4929756,3.4266256 6.3251953,3.392167 6.1775076,3.4083025 5.8658955,3.4436199 5.8300408,3.7033994 5.9059743,3.9362968 6.0938572,4.4791582 6.672523,5.2138835 6.4728443,5.7186749 6.3175521,6.0863327 5.8944578,6.1950253 5.4496496,6.2109011 5.1794518,6.2197294 4.9009057,6.1991829 4.7958048,6.0678522 Z"
       style="fill:#464648;fill-opacity:1;stroke:#464648;stroke-width:0.01835565px;stroke-linecap:butt;stroke-linejoin:miter;stroke-opacity:1" />
    <text
       id="text5151"
       y="8.0296278"
       x="2.5169032"
       style="font-style:normal;font-variant:normal;font-weight:normal;font-stretch:normal;font-size:1.52952266px;line-height:1.25;font-family:Gobold;-inkscape-font-specification:Gobold;letter-spacing:0px;word-spacing:0px;fill:#464648;fill-opacity:1;stroke:none;stroke-width:0.02372902"
       xml:space="preserve"><tspan
         style="font-style:normal;font-variant:normal;font-weight:normal;font-stretch:normal;font-family:Gobold;-inkscape-font-specification:Gobold;fill:#464648;fill-opacity:1;stroke-width:0.02372902"
         y="8.0296278"
         x="2.5169032"
         id="tspan5149">timie</tspan></text>
    <path
       id="path4981"
       d="M 4.8266265,3.791978 C 5.0727099,4.234422 5.6040016,4.6266363 5.6933881,4.96914 5.8836968,5.6983489 5.095558,6.3337136 4.3580971,6.3337136 3.6206363,6.3337136 2.9602166,5.7201695 3.0228063,4.96914 3.0726221,4.3713883 3.6413177,4.2025108 3.8544411,3.8388303 4.0675646,3.4751499 4.0429716,3.1243688 3.7724504,2.8432189 2.8282994,2.2726154 2.7669076,1.8463331 3.0962637,1.5768766 3.172471,1.5145286 3.140756,0.92177496 3.2527101,0.87637426 3.3837077,0.82325098 3.6638454,1.3206368 3.8256733,1.2911773 4.1510649,1.2319429 4.5190422,1.2210458 4.8502251,1.2605037 4.9947013,1.2777198 5.3078728,0.80085204 5.4317547,0.83739957 5.5428225,0.87016659 5.4672671,1.4144333 5.5517319,1.4629965 5.9825499,1.7106924 6.0055735,2.1654279 4.9906084,2.8432191 4.612294,3.1538526 4.6706792,3.5115957 4.8266265,3.791978 Z"
       style="opacity:1;fill:#464648;fill-opacity:1;fill-rule:evenodd;stroke:#464648;stroke-width:0.16650157;stroke-linecap:square;stroke-linejoin:miter;stroke-miterlimit:4;stroke-dasharray:none;stroke-dashoffset:0;stroke-opacity:1;paint-order:normal" />
    <path
       id="path5003"
       d="M 3.0855907,5.2409972 3.0607428,4.9925254 C 3.3281039,4.8912325 3.5911904,4.8853607 3.8443628,4.9335344 4.2686322,5.04872 4.6451652,5.2538853 5.0674278,5.1448363 5.2738031,5.0898847 5.4535041,4.9927808 5.6365728,4.9262684 L 5.694549,5.191305 C 5.4726983,5.2843486 5.2381445,5.366039 5.0049222,5.4029787 4.7345898,5.4457963 4.5222033,5.4143711 4.2202836,5.2989754 3.7968278,5.1371279 3.4163419,5.1759973 3.0855907,5.2409972 Z"
       style="fill:#47ade3;fill-opacity:1;stroke:#47ade3;stroke-width:0.01835565px;stroke-linecap:butt;stroke-linejoin:miter;stroke-opacity:1" />
    <path
       id="path5005"
       d="M 3.0929878,5.3321035 C 3.3632286,5.2450501 3.6381859,5.2537296 3.8770928,5.3028972 4.2936442,5.3937924 4.6436412,5.5868968 5.0455109,5.5277544 5.2429059,5.4971587 5.4445778,5.4282456 5.620008,5.3403891 5.6040606,5.4452999 5.5943952,5.5502094 5.5123358,5.6551195 5.3404957,5.6927419 5.1285609,5.7306621 4.9090352,5.7371877 4.4827031,5.7664593 4.1429906,5.5473732 3.763441,5.514045 3.5851111,5.4994221 3.3971381,5.5109467 3.19326,5.5474492 Z"
       style="fill:#47ade3;fill-opacity:1;stroke:#47ade3;stroke-width:0.01835565px;stroke-linecap:butt;stroke-linejoin:miter;stroke-opacity:1" />
    <path
       id="path5007"
       d="M 3.3514711,5.8155382 3.1976033,5.625043 C 3.3597959,5.593763 3.5609591,5.57986 3.7122528,5.597623 4.1239671,5.644466 4.4593133,5.8752075 4.8526996,5.8804819 5.0358977,5.8816919 5.2084112,5.8519249 5.3549713,5.8207669 5.3129119,5.982966 4.9196782,6.2121716 4.7739172,6.1856338 4.5789937,6.0917128 4.3414983,6.0035468 4.1749433,5.9500734 3.8801257,5.8554205 3.5562598,5.8275186 3.3514711,5.8155382 Z"
       style="fill:#47ade3;fill-opacity:1;stroke:#47ade3;stroke-width:0.01835565px;stroke-linecap:butt;stroke-linejoin:miter;stroke-opacity:1" />
    <path
       id="path5009"
       d="M 3.4770337,5.9014178 C 3.8625559,5.9084312 4.309333,6.091639 4.6095509,6.2266025 4.2567913,6.2549747 3.6762434,6.1527361 3.4770337,5.9014178 Z"
       style="fill:#47ade3;fill-opacity:1;stroke:#47ade3;stroke-width:0.01835565px;stroke-linecap:butt;stroke-linejoin:miter;stroke-opacity:1" />
    <path
       style="opacity:1;fill:none;fill-opacity:1;fill-rule:evenodd;stroke:#464648;stroke-width:0.16650157;stroke-linecap:square;stroke-linejoin:miter;stroke-miterlimit:4;stroke-dasharray:none;stroke-dashoffset:0;stroke-opacity:1;paint-order:normal"
       d="M 4.8266265,3.791978 C 5.0727099,4.234422 5.6040016,4.6266363 5.6933881,4.96914 5.8836968,5.6983489 5.095558,6.3337136 4.3580971,6.3337136 3.6206363,6.3337136 2.9602166,5.7201695 3.0228063,4.96914 3.0726221,4.3713883 3.6413177,4.2025108 3.8544411,3.8388303 4.0675646,3.4751499 4.0429716,3.1243688 3.7724504,2.8432189 2.8282994,2.2726154 2.7669076,1.8463331 3.0962637,1.5768766 3.172471,1.5145286 3.140756,0.92177496 3.2527101,0.87637426 3.3837077,0.82325098 3.6638454,1.3206368 3.8256733,1.2911773 4.1510649,1.2319429 4.5190422,1.2210458 4.8502251,1.2605037 4.9947013,1.2777198 5.3078728,0.80085204 5.4317547,0.83739957 5.5428225,0.87016659 5.4672671,1.4144333 5.5517319,1.4629965 5.9825499,1.7106924 6.0055735,2.1654279 4.9906084,2.8432191 4.612294,3.1538526 4.6706792,3.5115957 4.8266265,3.791978 Z"
       id="path5013" />
  </g>
</svg>
