<?xml version="1.0" encoding="UTF-8" standalone="no"?>
<svg
   xmlns:dc="http://purl.org/dc/elements/1.1/"
   xmlns:cc="http://creativecommons.org/ns#"
   xmlns:rdf="http://www.w3.org/1999/02/22-rdf-syntax-ns#"
   xmlns:svg="http://www.w3.org/2000/svg"
   xmlns="http://www.w3.org/2000/svg"
   xmlns:xlink="http://www.w3.org/1999/xlink"
   width="800"
   height="800"
   viewBox="0 0 8.3333333 8.3333331"
   version="1.1"
   id="SVGRoot">
  <defs
     id="defs834">
    <marker
       style="overflow:visible"
       id="marker7220"
       refX="0"
       refY="0"
       orient="auto">
      <g
         id="g7218"
         style="fill:#ffffff;stroke:#ffffff;stroke-opacity:1;fill-opacity:1"
         transform="translate(-13,0)">
        <circle
           id="circle7212"
           r="0.8"
           cy="0"
           cx="3"
           style="stroke:#ffffff;stroke-opacity:1;fill:#ffffff;fill-opacity:1" />
        <circle
           id="circle7214"
           r="0.8"
           cy="0"
           cx="6.5"
           style="stroke:#ffffff;stroke-opacity:1;fill:#ffffff;fill-opacity:1" />
        <circle
           id="circle7216"
           r="0.8"
           cy="0"
           cx="10"
           style="stroke:#ffffff;stroke-opacity:1;fill:#ffffff;fill-opacity:1" />
      </g>
    </marker>
    <marker
       style="overflow:visible"
       id="marker7210"
       refX="0"
       refY="0"
       orient="auto">
      <g
         id="g7208"
         style="fill:#ffffff;stroke:#ffffff;stroke-opacity:1;fill-opacity:1"
         transform="translate(-13,0)">
        <circle
           id="circle7202"
           r="0.8"
           cy="0"
           cx="3"
           style="stroke:#ffffff;stroke-opacity:1;fill:#ffffff;fill-opacity:1" />
        <circle
           id="circle7204"
           r="0.8"
           cy="0"
           cx="6.5"
           style="stroke:#ffffff;stroke-opacity:1;fill:#ffffff;fill-opacity:1" />
        <circle
           id="circle7206"
           r="0.8"
           cy="0"
           cx="10"
           style="stroke:#ffffff;stroke-opacity:1;fill:#ffffff;fill-opacity:1" />
      </g>
    </marker>
    <marker
       style="overflow:visible"
       id="InfiniteLineStart"
       refX="0"
       refY="0"
       orient="auto">
      <g
         id="g7185"
         style="fill:#ffffff;stroke:#ffffff;stroke-opacity:1;fill-opacity:1"
         transform="translate(-13,0)">
        <circle
           id="circle7179"
           r="0.8"
           cy="0"
           cx="3"
           style="stroke:#ffffff;stroke-opacity:1;fill:#ffffff;fill-opacity:1" />
        <circle
           id="circle7181"
           r="0.8"
           cy="0"
           cx="6.5"
           style="stroke:#ffffff;stroke-opacity:1;fill:#ffffff;fill-opacity:1" />
        <circle
           id="circle7183"
           r="0.8"
           cy="0"
           cx="10"
           style="stroke:#ffffff;stroke-opacity:1;fill:#ffffff;fill-opacity:1" />
      </g>
    </marker>
    <linearGradient
       id="linearGradient2603">
      <stop
         style="stop-color:#c0e8e8;stop-opacity:1;"
         offset="0"
         id="stop2599" />
      <stop
         style="stop-color:#c0e8e8;stop-opacity:0;"
         offset="1"
         id="stop2601" />
    </linearGradient>
    <linearGradient
       id="linearGradient11518">
      <stop
         style="stop-color:#a3deec;stop-opacity:1;"
         offset="0"
         id="stop11514" />
      <stop
         style="stop-color:#a3deec;stop-opacity:0;"
         offset="1"
         id="stop11516" />
    </linearGradient>
    <linearGradient
       xlink:href="#linearGradient11518"
       id="linearGradient3116"
       gradientUnits="userSpaceOnUse"
       x1="2.2395854"
       y1="1.0086861"
       x2="2.3413999"
       y2="1.0086861"
       gradientTransform="matrix(0.01041667,0,0,0.01041667,3.0970244,3.1021801)" />
    <linearGradient
       xlink:href="#linearGradient2603"
       id="linearGradient3128"
       gradientUnits="userSpaceOnUse"
       x1="2.1091659"
       y1="0.86823446"
       x2="2.2109804"
       y2="0.86823446"
       gradientTransform="matrix(0.01041667,0,0,0.01041667,3.0970244,3.1021801)" />
    <linearGradient
       xlink:href="#linearGradient11518"
       id="linearGradient3143"
       gradientUnits="userSpaceOnUse"
       x1="1.9611896"
       y1="0.98360544"
       x2="2.0630043"
       y2="0.98360544"
       gradientTransform="matrix(0.01041667,0,0,0.01041667,3.0970244,3.1021801)" />
    <clipPath
       id="clipPath10459"
       clipPathUnits="userSpaceOnUse">
      <path
         id="path10457"
         d="M 0,800 H 1000 V 0 H 0 Z" />
    </clipPath>
    <clipPath
       id="clipPath10583"
       clipPathUnits="userSpaceOnUse">
      <path
         id="path10581"
         d="M 0,800 H 1000 V 0 H 0 Z" />
    </clipPath>
    <clipPath
       id="clipPath10707"
       clipPathUnits="userSpaceOnUse">
      <path
         id="path10705"
         d="M 0,800 H 1000 V 0 H 0 Z" />
    </clipPath>
    <clipPath
       id="clipPath10727"
       clipPathUnits="userSpaceOnUse">
      <path
         id="path10725"
         d="M 0,800 H 1000 V 0 H 0 Z" />
    </clipPath>
    <clipPath
       id="clipPath10747"
       clipPathUnits="userSpaceOnUse">
      <path
         id="path10745"
         d="M 0,800 H 1000 V 0 H 0 Z" />
    </clipPath>
    <clipPath
       id="clipPath10767"
       clipPathUnits="userSpaceOnUse">
      <path
         id="path10765"
         d="M 0,800 H 1000 V 0 H 0 Z" />
    </clipPath>
    <clipPath
       id="clipPath10877"
       clipPathUnits="userSpaceOnUse">
      <path
         id="path10875"
         d="M 0,800 H 1000 V 0 H 0 Z" />
    </clipPath>
    <clipPath
       id="clipPath11077"
       clipPathUnits="userSpaceOnUse">
      <path
         id="path11075"
         d="M 0,800 H 1000 V 0 H 0 Z" />
    </clipPath>
    <clipPath
       id="clipPath11121"
       clipPathUnits="userSpaceOnUse">
      <path
         id="path11119"
         d="M 0,800 H 1000 V 0 H 0 Z" />
    </clipPath>
    <clipPath
       id="clipPath11153"
       clipPathUnits="userSpaceOnUse">
      <path
         id="path11151"
         d="M 0,800 H 1000 V 0 H 0 Z" />
    </clipPath>
    <clipPath
       id="clipPath11409"
       clipPathUnits="userSpaceOnUse">
      <path
         id="path11407"
         d="M 0,800 H 1000 V 0 H 0 Z" />
    </clipPath>
    <clipPath
       id="clipPath11537"
       clipPathUnits="userSpaceOnUse">
      <path
         id="path11535"
         d="M 0,800 H 1000 V 0 H 0 Z" />
    </clipPath>
    <clipPath
       id="clipPath11645"
       clipPathUnits="userSpaceOnUse">
      <path
         id="path11643"
         d="M 0,800 H 1000 V 0 H 0 Z" />
    </clipPath>
    <clipPath
       id="clipPath11929"
       clipPathUnits="userSpaceOnUse">
      <path
         id="path11927"
         d="M 0,800 H 1000 V 0 H 0 Z" />
    </clipPath>
    <clipPath
       id="clipPath11965"
       clipPathUnits="userSpaceOnUse">
      <path
         id="path11963"
         d="M 0,800 H 1000 V 0 H 0 Z" />
    </clipPath>
    <clipPath
       id="clipPath12039"
       clipPathUnits="userSpaceOnUse">
      <path
         id="path12037"
         d="M 0,800 H 1000 V 0 H 0 Z" />
    </clipPath>
    <clipPath
       id="clipPath12175"
       clipPathUnits="userSpaceOnUse">
      <path
         id="path12173"
         d="M 0,800 H 1000 V 0 H 0 Z" />
    </clipPath>
    <clipPath
       id="clipPath12271"
       clipPathUnits="userSpaceOnUse">
      <path
         id="path12269"
         d="M 0,800 H 1000 V 0 H 0 Z" />
    </clipPath>
    <clipPath
       id="clipPath12299"
       clipPathUnits="userSpaceOnUse">
      <path
         id="path12297"
         d="M 0,800 H 1000 V 0 H 0 Z" />
    </clipPath>
    <clipPath
       id="clipPath12321"
       clipPathUnits="userSpaceOnUse">
      <path
         id="path12319"
         d="M 0,800 H 1000 V 0 H 0 Z" />
    </clipPath>
    <clipPath
       id="clipPath12427"
       clipPathUnits="userSpaceOnUse">
      <path
         id="path12425"
         d="M 0,800 H 1000 V 0 H 0 Z" />
    </clipPath>
    <clipPath
       id="clipPath18"
       clipPathUnits="userSpaceOnUse">
      <path
         id="path16"
         d="M 0,1833.295 H 3000 V 0 H 0 Z" />
    </clipPath>
    <clipPath
       id="clipPath12427-0"
       clipPathUnits="userSpaceOnUse">
      <path
         id="path12425-4"
         d="M 0,800 H 1000 V 0 H 0 Z" />
    </clipPath>
    <clipPath
       id="clipPath12321-4"
       clipPathUnits="userSpaceOnUse">
      <path
         id="path12319-8"
         d="M 0,800 H 1000 V 0 H 0 Z" />
    </clipPath>
    <clipPath
       id="clipPath12299-5"
       clipPathUnits="userSpaceOnUse">
      <path
         id="path12297-4"
         d="M 0,800 H 1000 V 0 H 0 Z" />
    </clipPath>
    <clipPath
       id="clipPath12271-5"
       clipPathUnits="userSpaceOnUse">
      <path
         id="path12269-7"
         d="M 0,800 H 1000 V 0 H 0 Z" />
    </clipPath>
    <clipPath
       id="clipPath12175-5"
       clipPathUnits="userSpaceOnUse">
      <path
         id="path12173-2"
         d="M 0,800 H 1000 V 0 H 0 Z" />
    </clipPath>
    <clipPath
       id="clipPath12039-7"
       clipPathUnits="userSpaceOnUse">
      <path
         id="path12037-4"
         d="M 0,800 H 1000 V 0 H 0 Z" />
    </clipPath>
    <clipPath
       id="clipPath11965-2"
       clipPathUnits="userSpaceOnUse">
      <path
         id="path11963-6"
         d="M 0,800 H 1000 V 0 H 0 Z" />
    </clipPath>
    <clipPath
       id="clipPath11929-0"
       clipPathUnits="userSpaceOnUse">
      <path
         id="path11927-9"
         d="M 0,800 H 1000 V 0 H 0 Z" />
    </clipPath>
    <clipPath
       id="clipPath11645-2"
       clipPathUnits="userSpaceOnUse">
      <path
         id="path11643-7"
         d="M 0,800 H 1000 V 0 H 0 Z" />
    </clipPath>
    <clipPath
       id="clipPath11537-4"
       clipPathUnits="userSpaceOnUse">
      <path
         id="path11535-0"
         d="M 0,800 H 1000 V 0 H 0 Z" />
    </clipPath>
    <clipPath
       id="clipPath11409-3"
       clipPathUnits="userSpaceOnUse">
      <path
         id="path11407-8"
         d="M 0,800 H 1000 V 0 H 0 Z" />
    </clipPath>
    <clipPath
       id="clipPath11153-4"
       clipPathUnits="userSpaceOnUse">
      <path
         id="path11151-4"
         d="M 0,800 H 1000 V 0 H 0 Z" />
    </clipPath>
    <clipPath
       id="clipPath11121-7"
       clipPathUnits="userSpaceOnUse">
      <path
         id="path11119-5"
         d="M 0,800 H 1000 V 0 H 0 Z" />
    </clipPath>
    <clipPath
       id="clipPath11077-3"
       clipPathUnits="userSpaceOnUse">
      <path
         id="path11075-8"
         d="M 0,800 H 1000 V 0 H 0 Z" />
    </clipPath>
    <clipPath
       id="clipPath10877-7"
       clipPathUnits="userSpaceOnUse">
      <path
         id="path10875-2"
         d="M 0,800 H 1000 V 0 H 0 Z" />
    </clipPath>
    <clipPath
       id="clipPath10767-2"
       clipPathUnits="userSpaceOnUse">
      <path
         id="path10765-7"
         d="M 0,800 H 1000 V 0 H 0 Z" />
    </clipPath>
    <clipPath
       id="clipPath10747-9"
       clipPathUnits="userSpaceOnUse">
      <path
         id="path10745-6"
         d="M 0,800 H 1000 V 0 H 0 Z" />
    </clipPath>
    <clipPath
       id="clipPath10727-6"
       clipPathUnits="userSpaceOnUse">
      <path
         id="path10725-4"
         d="M 0,800 H 1000 V 0 H 0 Z" />
    </clipPath>
    <clipPath
       id="clipPath10707-2"
       clipPathUnits="userSpaceOnUse">
      <path
         id="path10705-1"
         d="M 0,800 H 1000 V 0 H 0 Z" />
    </clipPath>
    <clipPath
       id="clipPath10583-4"
       clipPathUnits="userSpaceOnUse">
      <path
         id="path10581-7"
         d="M 0,800 H 1000 V 0 H 0 Z" />
    </clipPath>
    <clipPath
       id="clipPath10459-6"
       clipPathUnits="userSpaceOnUse">
      <path
         id="path10457-3"
         d="M 0,800 H 1000 V 0 H 0 Z" />
    </clipPath>
  </defs>
  <metadata
     id="metadata837">
    <rdf:RDF>
      <cc:Work
         rdf:about="">
        <dc:format>image/svg+xml</dc:format>
        <dc:type
           rdf:resource="http://purl.org/dc/dcmitype/StillImage" />
        <dc:title></dc:title>
      </cc:Work>
    </rdf:RDF>
    <rdf:RDF>
      <cc:Work
         rdf:about="">
        <dc:title />
      </cc:Work>
    </rdf:RDF>
  </metadata>
  <g
     id="layer1"
     style="display:none">
    <rect
       style="opacity:1;fill:#bce7f5;fill-opacity:1;fill-rule:evenodd;stroke:none;stroke-width:0.01574804;stroke-linecap:square;stroke-linejoin:miter;stroke-miterlimit:4;stroke-dasharray:none;stroke-dashoffset:0;stroke-opacity:1;paint-order:normal"
       id="rect5170"
       width="8.6690254"
       height="8.6187706"
       x="-0.12563805"
       y="-0.10954066"
       rx="0.01727438"
       ry="0.26651883" />
  </g>
  <g
     transform="translate(-2.3031407,3.0707641)"
     aria-label="timie"
     style="font-style:normal;font-variant:normal;font-weight:normal;font-stretch:normal;font-size:1.64936018px;line-height:1.25;font-family:Gobold;-inkscape-font-specification:Gobold;letter-spacing:0px;word-spacing:0px;fill:#464648;fill-opacity:1;stroke:none;stroke-width:0.02558818"
     id="text5151">
    <path
       d="M 5.3858039,3.4684265 V 3.6665431 H 5.1723857 V 4.8649063 H 4.9444712 V 3.6665431 H 4.731053 V 3.4684265 Z"
       style="font-style:normal;font-variant:normal;font-weight:normal;font-stretch:normal;font-family:Gobold;-inkscape-font-specification:Gobold;fill:#464648;fill-opacity:1;stroke-width:0.02558818"
       id="path980" />
    <path
       d="M 5.5339886,3.4684265 H 5.7619031 V 4.8649063 H 5.5339886 Z"
       style="font-style:normal;font-variant:normal;font-weight:normal;font-stretch:normal;font-family:Gobold;-inkscape-font-specification:Gobold;fill:#464648;fill-opacity:1;stroke-width:0.02558818"
       id="path982" />
    <path
       d="M 6.4706126,4.4251843 6.7355733,3.4684265 H 6.9634878 V 4.8649063 H 6.7452375 V 4.0812992 L 6.5503424,4.8649063 H 6.3957149 L 6.1951823,4.0812992 V 4.8649063 H 5.974516 V 3.4684265 h 0.2279145 z"
       style="font-style:normal;font-variant:normal;font-weight:normal;font-stretch:normal;font-family:Gobold;-inkscape-font-specification:Gobold;fill:#464648;fill-opacity:1;stroke-width:0.02558818"
       id="path984" />
    <path
       d="M 7.1769059,3.4684265 H 7.4048204 V 4.8649063 H 7.1769059 Z"
       style="font-style:normal;font-variant:normal;font-weight:normal;font-stretch:normal;font-family:Gobold;-inkscape-font-specification:Gobold;fill:#464648;fill-opacity:1;stroke-width:0.02558818"
       id="path986" />
    <path
       d="M 7.6174335,3.4684265 H 8.2085616 V 3.6665431 H 7.845348 V 4.0668028 H 8.1578244 V 4.26653 H 7.845348 V 4.6659845 H 8.2085616 V 4.8649063 H 7.6174335 Z"
       style="font-style:normal;font-variant:normal;font-weight:normal;font-stretch:normal;font-family:Gobold;-inkscape-font-specification:Gobold;fill:#464648;fill-opacity:1;stroke-width:0.02558818"
       id="path988" />
  </g>
  <g
     transform="translate(-0.82058191,-0.01404017)"
     id="g1042">
    <path
       style="fill:#464648;fill-opacity:1;stroke:#464648;stroke-width:0.01835565px;stroke-linecap:butt;stroke-linejoin:miter;stroke-opacity:1"
       d="M 5.5080891,5.7282715 C 5.8018118,5.7414875 6.128453,5.7679091 6.1292688,5.4135405 6.1177736,4.8550347 5.7775752,4.5618445 5.5642084,4.188028 5.2495827,3.6978243 5.5282406,3.1046455 6.0255888,2.9761491 6.418348,2.9041266 6.7704461,2.9666691 6.9975107,3.2895884 7.2812162,3.7123904 7.1091223,4.2447839 6.5807097,4.2357834 6.4704173,4.2306607 6.367747,4.1843231 6.311482,4.071793 6.1816572,3.8125014 6.5490436,3.9304517 6.68419,3.7984737 6.7444392,3.6958459 6.6804996,3.5953162 6.5942793,3.5213905 6.4929756,3.4266256 6.3251953,3.392167 6.1775076,3.4083025 5.8658955,3.4436199 5.8300408,3.7033994 5.9059743,3.9362968 6.0938572,4.4791582 6.672523,5.2138835 6.4728443,5.7186749 6.3175521,6.0863327 5.8944578,6.1950253 5.4496496,6.2109011 5.1794518,6.2197294 4.9009057,6.1991829 4.7958048,6.0678522 Z"
       id="path5011" />
    <path
       style="opacity:1;fill:#464648;fill-opacity:1;fill-rule:evenodd;stroke:#464648;stroke-width:0.16650157;stroke-linecap:square;stroke-linejoin:miter;stroke-miterlimit:4;stroke-dasharray:none;stroke-dashoffset:0;stroke-opacity:1;paint-order:normal"
       d="M 4.8266265,3.791978 C 5.0727099,4.234422 5.6040016,4.6266363 5.6933881,4.96914 5.8836968,5.6983489 5.095558,6.3337136 4.3580971,6.3337136 3.6206363,6.3337136 2.9602166,5.7201695 3.0228063,4.96914 3.0726221,4.3713883 3.6413177,4.2025108 3.8544411,3.8388303 4.0675646,3.4751499 4.0429716,3.1243688 3.7724504,2.8432189 2.8282994,2.2726154 2.7669076,1.8463331 3.0962637,1.5768766 3.172471,1.5145286 3.140756,0.92177496 3.2527101,0.87637426 3.3837077,0.82325098 3.6638454,1.3206368 3.8256733,1.2911773 4.1510649,1.2319429 4.5190422,1.2210458 4.8502251,1.2605037 4.9947013,1.2777198 5.3078728,0.80085204 5.4317547,0.83739957 5.5428225,0.87016659 5.4672671,1.4144333 5.5517319,1.4629965 5.9825499,1.7106924 6.0055735,2.1654279 4.9906084,2.8432191 4.612294,3.1538526 4.6706792,3.5115957 4.8266265,3.791978 Z"
       id="path4981" />
    <path
       style="fill:#47ade3;fill-opacity:1;stroke:#47ade3;stroke-width:0.01835565px;stroke-linecap:butt;stroke-linejoin:miter;stroke-opacity:1"
       d="M 3.0855907,5.2409972 3.0607428,4.9925254 C 3.3281039,4.8912325 3.5911904,4.8853607 3.8443628,4.9335344 4.2686322,5.04872 4.6451652,5.2538853 5.0674278,5.1448363 5.2738031,5.0898847 5.4535041,4.9927808 5.6365728,4.9262684 L 5.694549,5.191305 C 5.4726983,5.2843486 5.2381445,5.366039 5.0049222,5.4029787 4.7345898,5.4457963 4.5222033,5.4143711 4.2202836,5.2989754 3.7968278,5.1371279 3.4163419,5.1759973 3.0855907,5.2409972 Z"
       id="path5003" />
    <path
       style="fill:#47ade3;fill-opacity:1;stroke:#47ade3;stroke-width:0.01835565px;stroke-linecap:butt;stroke-linejoin:miter;stroke-opacity:1"
       d="M 3.0929878,5.3321035 C 3.3632286,5.2450501 3.6381859,5.2537296 3.8770928,5.3028972 4.2936442,5.3937924 4.6436412,5.5868968 5.0455109,5.5277544 5.2429059,5.4971587 5.4445778,5.4282456 5.620008,5.3403891 5.6040606,5.4452999 5.5943952,5.5502094 5.5123358,5.6551195 5.3404957,5.6927419 5.1285609,5.7306621 4.9090352,5.7371877 4.4827031,5.7664593 4.1429906,5.5473732 3.763441,5.514045 3.5851111,5.4994221 3.3971381,5.5109467 3.19326,5.5474492 Z"
       id="path5005" />
    <path
       style="fill:#47ade3;fill-opacity:1;stroke:#47ade3;stroke-width:0.01835565px;stroke-linecap:butt;stroke-linejoin:miter;stroke-opacity:1"
       d="M 3.3514711,5.8155382 3.1976033,5.625043 C 3.3597959,5.593763 3.5609591,5.57986 3.7122528,5.597623 4.1239671,5.644466 4.4593133,5.8752075 4.8526996,5.8804819 5.0358977,5.8816919 5.2084112,5.8519249 5.3549713,5.8207669 5.3129119,5.982966 4.9196782,6.2121716 4.7739172,6.1856338 4.5789937,6.0917128 4.3414983,6.0035468 4.1749433,5.9500734 3.8801257,5.8554205 3.5562598,5.8275186 3.3514711,5.8155382 Z"
       id="path5007" />
    <path
       style="fill:#47ade3;fill-opacity:1;stroke:#47ade3;stroke-width:0.01835565px;stroke-linecap:butt;stroke-linejoin:miter;stroke-opacity:1"
       d="M 3.4770337,5.9014178 C 3.8625559,5.9084312 4.309333,6.091639 4.6095509,6.2266025 4.2567913,6.2549747 3.6762434,6.1527361 3.4770337,5.9014178 Z"
       id="path5009" />
    <path
       id="path5013"
       d="M 4.8266265,3.791978 C 5.0727099,4.234422 5.6040016,4.6266363 5.6933881,4.96914 5.8836968,5.6983489 5.095558,6.3337136 4.3580971,6.3337136 3.6206363,6.3337136 2.9602166,5.7201695 3.0228063,4.96914 3.0726221,4.3713883 3.6413177,4.2025108 3.8544411,3.8388303 4.0675646,3.4751499 4.0429716,3.1243688 3.7724504,2.8432189 2.8282994,2.2726154 2.7669076,1.8463331 3.0962637,1.5768766 3.172471,1.5145286 3.140756,0.92177496 3.2527101,0.87637426 3.3837077,0.82325098 3.6638454,1.3206368 3.8256733,1.2911773 4.1510649,1.2319429 4.5190422,1.2210458 4.8502251,1.2605037 4.9947013,1.2777198 5.3078728,0.80085204 5.4317547,0.83739957 5.5428225,0.87016659 5.4672671,1.4144333 5.5517319,1.4629965 5.9825499,1.7106924 6.0055735,2.1654279 4.9906084,2.8432191 4.612294,3.1538526 4.6706792,3.5115957 4.8266265,3.791978 Z"
       style="opacity:1;fill:none;fill-opacity:1;fill-rule:evenodd;stroke:#464648;stroke-width:0.16650157;stroke-linecap:square;stroke-linejoin:miter;stroke-miterlimit:4;stroke-dasharray:none;stroke-dashoffset:0;stroke-opacity:1;paint-order:normal" />
  </g>
</svg>
